<svg width="30" height="23" viewBox="0 0 30 23" fill="none" xmlns="http://www.w3.org/2000/svg">
<path d="M0 4.13806C0 3.03349 0.89543 2.13806 2 2.13806H4C5.10457 2.13806 6 3.03349 6 4.13806V14.1381C6 15.2426 6.89543 16.1381 8 16.1381H22C23.1046 16.1381 24 15.2426 24 14.1381V4.13806C24 3.03349 24.8954 2.13806 26 2.13806H28C29.1046 2.13806 30 3.03349 30 4.13806V17.1381C30 19.8995 27.7614 22.1381 25 22.1381H5C2.23858 22.1381 0 19.8995 0 17.1381V4.13806Z" fill="#C4C4C4"/>
<path d="M7 3.13806C7 1.48121 8.34315 0.138062 10 0.138062H20C21.6569 0.138062 23 1.48121 23 3.13806V14.1381C23 14.6903 22.5523 15.1381 22 15.1381H8C7.44772 15.1381 7 14.6903 7 14.1381V3.13806Z" fill="#C4C4C4"/>
</svg>
